
        <svg xmlns="http://www.w3.org/2000/svg" xmlns:xlink="http://www.w3.org/1999/xlink" version="1.1" width="3171.4285714285716" 
        height="1609.274861264518" viewBox="0 0 3171.4285714285716 1609.274861264518">
			<rect fill="#ffffff" width="3171.4285714285716" height="1609.274861264518"/>
			<g transform="scale(8.571428571428571) translate(10, 10)">
				<defs id="SvgjsDefs18191"><linearGradient id="SvgjsLinearGradient18198"><stop id="SvgjsStop18199" stop-color="#006838" offset="0"></stop><stop id="SvgjsStop18200" stop-color="#96cf24" offset="1"></stop></linearGradient><linearGradient id="SvgjsLinearGradient18201"><stop id="SvgjsStop18202" stop-color="#006838" offset="0"></stop><stop id="SvgjsStop18203" stop-color="#96cf24" offset="1"></stop></linearGradient><linearGradient id="SvgjsLinearGradient18204"><stop id="SvgjsStop18205" stop-color="#ef4136" offset="0"></stop><stop id="SvgjsStop18206" stop-color="#fbb040" offset="1"></stop></linearGradient></defs><g id="SvgjsG18192" featureKey="symbolFeature-0" transform="matrix(0.8144268767686523,0,0,0.8144268767686523,105,0.16288536564500553)" fill="url(#SvgjsLinearGradient18198)"><path xmlns="http://www.w3.org/2000/svg" d="M170.8,14.4c-0.2,0-4.5-1.2-10.4-1.2c-7.2,0-13.3,1.6-18,4.8c-10.9,7.3-13.5,22.1-13.9,24.5c-2.5,2.5-4.8,5.2-7,8.1  c-1.2-2.5-2.2-5-3.1-7.6c0.9-1.1,2.8-3.5,4.5-6.9c2.7-5.3,3.8-10.5,3.3-15.3c-1.4-11.9-12.9-20-13.4-20.3l-1-0.7L111,0.9  c-0.1,0.1-2.6,3-4.9,7.4c-2.8,5.4-3.9,10.6-3.3,15.5c1.3,10.9,11.3,18.6,13,19.9c1,3.2,2.4,6.3,4,9.5c-4.6,6.6-8.1,13.8-10.4,21.5  H54.5c0.4-1.7,0.8-3.2,1.2-4.6c0.1-0.4,0.2-0.8,0.4-1.1c1-3.2,2.3-6.3,3.8-9.2c1.4-0.1,4.6-0.5,8.2-1.7c5.8-1.8,10.3-4.7,13.4-8.6  c7.6-9.5,5.2-23.7,5.1-24.3L86.4,24L85.2,24c-0.4,0-4.2,0.3-8.9,1.8c-5.9,1.9-10.5,4.8-13.6,8.7c-7,8.8-5.4,21.6-5.1,23.7  c-1.5,2.9-2.8,5.9-3.8,9.1c0,0-0.1,0.3-0.5,1.5c-0.6,1.9-1.1,3.8-1.6,5.9H11.5c0.5-1.7,1.2-3.2,1.9-4.7c1-0.1,2.9-0.4,5.2-1.2  c3.8-1.3,6.8-3.3,8.8-5.9c4.9-6.4,3.1-15.8,3.1-16.2l-0.2-1.1L29,45.6c-0.5,0-2.9,0.3-5.8,1.3c-3.9,1.3-6.9,3.3-8.9,6  c-4.4,5.7-3.4,13.7-3.1,15.7c-0.9,1.9-1.7,3.9-2.3,5.9c0,0,0,0.1,0,0.1H0v2.7h148.1v-2.7H112c2.2-7.1,5.5-13.7,9.7-19.9  c0.3-0.4,0.5-0.8,0.8-1.1c2.3-3.2,4.9-6.3,7.6-9.1c1.6,0.4,5.2,1,9.8,1c7.1,0,13-1.6,17.8-4.8c11.7-7.9,14-24.3,14.1-25l0.1-1.1  L170.8,14.4z M139.9,43.1c-3.2,0-6.1-0.4-7.8-0.7c2.7-3,8.9-9.1,17.4-14c3.9-2.3,8.2-4.2,12.8-5.8l0.5-0.2l-0.8-2.4l-0.5,0.2  c-4.7,1.6-9.2,3.6-13.2,6c-7.3,4.2-13,9.3-16.3,12.7c1.4-5,4.7-13.8,11.9-18.6c4.3-2.9,9.9-4.4,16.6-4.4c3.8,0,7,0.5,8.6,0.8  c-0.7,3.5-3.7,15.9-12.8,22.1C151.9,41.6,146.4,43.1,139.9,43.1z M114.3,10.6l0.1-0.7l-2.6-0.4l-0.1,0.7c-0.6,4.2-0.8,8.3-0.6,12.2  c0.3,6.6,1.8,12.5,2.9,16.2c-6.8-6.5-8.3-12.8-8.6-15.2c-0.5-4.3,0.5-9,3.1-13.9c1.4-2.7,2.9-4.8,3.8-5.9  c9.6,7.6,11.1,16.1,11.3,17.7c0.5,4.3-0.5,8.9-3,13.8c-1.1,2.2-2.4,4-3.2,5.2c-1.2-3.2-3.2-10-3.6-17.9  C113.5,18.6,113.7,14.6,114.3,10.6z M71.6,41.4c2.6-2.8,5.6-5.5,8.9-8l0.6-0.4l-1.6-2.1l-0.6,0.4c-3.5,2.6-6.6,5.4-9.3,8.3  c-4.6,5-7.8,10.3-9.7,13.8c-0.2-9.7,3.3-15.2,4.9-17.2c2.8-3.5,6.9-6.1,12.3-7.8c3-0.9,5.6-1.3,7-1.5c1.4,12.5-3.7,19.6-4.7,20.9  c-2.7,3.4-6.8,6-12.1,7.7c-2.4,0.8-4.6,1.2-6.1,1.4C62.7,53.7,66.1,47.3,71.6,41.4z M20.7,57.8c1.6-1.9,3.5-3.6,5.6-5.3L27,52  l-1.6-2l-0.7,0.5c-2.2,1.7-4.2,3.6-6,5.6c-2.4,2.7-4.1,5.5-5.4,7.7c0.1-2.8,0.7-6.5,2.8-9.4c1.7-2.2,4.3-4,7.7-5.1  c1.6-0.6,3.1-0.8,4-1c0.3,2.5,0.5,8.7-2.7,12.9c-1.7,2.2-4.2,3.9-7.6,5c-1.1,0.4-2.2,0.7-3.1,0.8C15.7,64.9,17.6,61.3,20.7,57.8z"></path></g><g id="SvgjsG18193" featureKey="nameFeature-0" transform="matrix(2.2642873564818258,0,0,2.2642873564818258,-8.332577083162434,53.02084023722027)" fill="url(#SvgjsLinearGradient18201)"><path d="M10.2 35 l9.4 0 c0.2 0 0.36 0.16 0.36 0.36 l0 4.28 c0 0.2 -0.16 0.36 -0.36 0.36 l-15.44 0 c-0.16 0 -0.36 -0.08 -0.36 -0.36 l0 -4.44 s0 -0.04 0.04 -0.16 l9.64 -16.44 l-9.44 0 c-0.2 0 -0.36 -0.16 -0.36 -0.36 l0 -4.28 c0 -0.2 0.16 -0.36 0.36 -0.36 l15.56 0 c0.24 0 0.28 0.24 0.28 0.32 l0 4.48 c0 0.04 0 0.12 -0.04 0.16 z M6.28 15.8 c-0.28 0 -0.24 0.52 0 0.52 l10.8 0 c0.28 0 0.32 0.08 0.2 0.28 l-11.52 20.12 c-0.2 0.4 0 1.04 0.6 1.04 l10.92 0 c0.32 0 0.32 -0.52 0 -0.52 l-10.92 0 c-0.16 0 -0.2 -0.12 -0.16 -0.28 l11.48 -20.16 c0.4 -0.68 0.08 -1 -0.4 -1 l-11 0 z M28.429 40 c-0.2 0 -0.32 -0.16 -0.32 -0.36 l0 -25.68 c0 -0.2 0.12 -0.36 0.32 -0.36 l13.6 0 c0.2 0 0.36 0.16 0.36 0.36 l0 4.28 c0 0.2 -0.16 0.36 -0.36 0.36 l-8.64 0 l0 5.44 l6.72 0 c0.2 0 0.32 0.16 0.32 0.36 l0 4.36 c0 0.2 -0.12 0.36 -0.32 0.36 l-6.72 0 l0 5.88 l8.64 0 c0.2 0 0.36 0.16 0.36 0.36 l0 4.28 c0 0.2 -0.16 0.36 -0.36 0.36 l-13.6 0 z M30.429 16.12 l0 21.28 c0 0.24 0.16 0.32 0.32 0.32 l9.2 0 c0.36 0 0.28 -0.48 0 -0.48 l-9 0 l0 -10.44 l7.36 0 c0.24 0 0.24 -0.56 0 -0.56 l-7.36 0 l0 -9.92 l9 0 c0.28 0 0.36 -0.52 0 -0.52 l-9.2 0 c-0.16 0 -0.32 0.12 -0.32 0.32 z M60.818 13.96 c0 -0.2 0.16 -0.36 0.36 -0.36 l4.6 0 c0.2 0 0.36 0.16 0.36 0.36 l0 25.68 c0 0.2 -0.16 0.36 -0.36 0.36 l-4.44 0 c-0.16 0 -0.32 -0.08 -0.36 -0.2 l-5.84 -13.16 l0 13 c0 0.2 -0.16 0.36 -0.36 0.36 l-4.56 0 c-0.2 0 -0.32 -0.16 -0.32 -0.36 l0 -25.68 c0 -0.2 0.12 -0.36 0.32 -0.36 l4.72 0 c0.16 0 0.24 0.12 0.28 0.2 l5.6 12.92 l0 -12.76 z M63.698 37.6 l0 -21.6 c0 -0.28 -0.52 -0.36 -0.52 0 l0 20.56 l-10.44 -20.64 c-0.12 -0.16 -0.44 -0.16 -0.44 0.08 l0 21.56 c0 0.36 0.48 0.36 0.48 0 l0 -20.52 l10.4 20.6 c0.16 0.28 0.52 0.2 0.52 -0.04 z M77.807 13.84 l4.4 16.56 l4.52 -16.56 c0.08 -0.12 0.16 -0.24 0.32 -0.24 l4.56 0 c0.24 0 0.4 0.2 0.32 0.44 l-6.92 25.72 c-0.08 0.16 -0.16 0.24 -0.32 0.24 l-4.96 0 c-0.12 0 -0.24 -0.08 -0.28 -0.24 l-6.92 -25.72 c-0.04 -0.24 0.12 -0.44 0.36 -0.44 l4.6 0 c0.16 0 0.24 0.12 0.32 0.24 z M82.127 37.24 l-6.68 -21.32 c-0.12 -0.32 -0.56 -0.12 -0.44 0.12 l6.64 21.36 c0.16 0.6 0.8 0.64 1 0 l6.4 -21.36 c0.08 -0.24 -0.36 -0.4 -0.44 -0.12 z M98.556 40 c-0.2 0 -0.32 -0.16 -0.32 -0.36 l0 -25.68 c0 -0.2 0.12 -0.36 0.32 -0.36 l13.6 0 c0.2 0 0.36 0.16 0.36 0.36 l0 4.28 c0 0.2 -0.16 0.36 -0.36 0.36 l-8.64 0 l0 5.44 l6.72 0 c0.2 0 0.32 0.16 0.32 0.36 l0 4.36 c0 0.2 -0.12 0.36 -0.32 0.36 l-6.72 0 l0 5.88 l8.64 0 c0.2 0 0.36 0.16 0.36 0.36 l0 4.28 c0 0.2 -0.16 0.36 -0.36 0.36 l-13.6 0 z M100.556 16.12 l0 21.28 c0 0.24 0.16 0.32 0.32 0.32 l9.2 0 c0.36 0 0.28 -0.48 0 -0.48 l-9 0 l0 -10.44 l7.36 0 c0.24 0 0.24 -0.56 0 -0.56 l-7.36 0 l0 -9.92 l9 0 c0.28 0 0.36 -0.52 0 -0.52 l-9.2 0 c-0.16 0 -0.32 0.12 -0.32 0.32 z M129.025 23.8 c3.04 1.44 7 3.72 7 7.84 c0 1.2 -0.2 3.52 -1.52 5.48 c-1.48 2.2 -3.8 3.28 -7 3.28 c-3.4 0 -7.36 -1.64 -8.6 -5.36 c-0.04 -0.12 0 -0.24 0.12 -0.32 l3.68 -3.16 c0.16 -0.12 0.4 -0.12 0.52 0.08 c0.08 0.2 0.24 0.52 0.44 0.92 c0.6 1.24 2.04 2.48 3.64 2.48 c1.24 0 2.92 -0.68 2.92 -2.6 c0 -1.84 -2.52 -2.88 -4.08 -3.48 c-1.8 -0.72 -3.64 -1.64 -5.2 -3 c-1.64 -1.52 -2.44 -3.2 -2.44 -5.2 c0 -5 4.6 -7.52 8.96 -7.52 c3.44 0 6 1.8 7.68 5.36 c0.08 0.16 0 0.36 -0.12 0.44 l-3.56 2.48 c-0.16 0.08 -0.24 0.08 -0.4 -0.12 c-1.36 -1.96 -2.56 -2.88 -4.16 -2.88 c-0.84 0 -2.8 0.32 -2.8 1.8 c0 1.8 3.32 2.72 4.92 3.48 z M121.745 34.84 c1 2 3.76 3.16 6 3.16 c2.92 0 5.28 -2 5.6 -5.04 c0.4 -3.72 -2.52 -5.32 -5.4 -6.76 l-1.28 -0.56 c-2.96 -1.32 -5.12 -2.32 -5.12 -5.08 c0 -3.04 2.8 -4.44 5.56 -4.44 c2.52 0 3.84 1.48 4.52 2.4 c0.24 0.32 0.64 0.04 0.4 -0.28 c-0.68 -0.84 -2.12 -2.6 -4.92 -2.6 c-3.16 0 -6.04 1.56 -6.04 4.92 c0 3 2.4 4.16 5.44 5.56 l1.24 0.6 c3.96 1.88 5.4 3.64 5.08 6.2 c-0.6 4.08 -3.72 4.6 -5.08 4.6 c-3 0 -5 -1.8 -5.6 -2.92 c-0.2 -0.2 -0.48 0 -0.4 0.24 z M146.894 18.6 l-5.68 0 c-0.2 0 -0.36 -0.16 -0.36 -0.36 l0 -4.28 c0 -0.2 0.16 -0.36 0.36 -0.36 l16.68 0 c0.2 0 0.36 0.16 0.36 0.36 l0 4.28 c0 0.2 -0.16 0.36 -0.36 0.36 l-5.68 0 l0 21.04 c0 0.2 -0.16 0.36 -0.36 0.36 l-4.6 0 c-0.2 0 -0.36 -0.16 -0.36 -0.36 l0 -21.04 z M155.454 15.8 l-12.08 0 c-0.28 0 -0.28 0.52 0 0.52 l5.92 0 l0 21.2 c0 0.28 0.52 0.28 0.52 0 l0 -21.2 l5.64 0 c0.4 0 0.36 -0.52 0 -0.52 z"></path></g><g id="SvgjsG18194" featureKey="sloganFeature-0" transform="matrix(0.897435721874585,0,0,0.897435721874585,70.00003616014409,149.6384789611662)" fill="url(#SvgjsLinearGradient18204)"><path d="M6.62 18.92 c-0.78666 0.72 -1.853378 1.080078 -3.20004 1.080078 l-3.42 0 l0 -15 l2.92 0 c0.8 0 1.46666 0.10334 2 0.31 s0.96 0.48666 1.28 0.84 s0.54334 0.76334 0.67 1.23 s0.19 0.95332 0.19 1.45998 c0 0.54666 -0.16334 1.06332 -0.49 1.54998 s-0.76332 0.94332 -1.30998 1.36998 c0.21334 0.13334 0.38 0.23668 0.5 0.31002 s0.23334 0.14334 0.34 0.21 c0.17334 0.14666 0.36668 0.32332 0.58002 0.52998 s0.41 0.44666 0.59 0.72 s0.33 0.58334 0.45 0.93 s0.18 0.73332 0.18 1.15998 c0 0.74666 -0.11 1.38666 -0.33 1.92 s-0.53666 0.99334 -0.95 1.38 z M3.39994 6.00008 l-2.36002 0.000039 l0 5.4 l2.56 0 c0.36 0 0.69 -0.06666 0.99 -0.2 s0.56 -0.31668 0.78 -0.55002 s0.39334 -0.50334 0.52 -0.81 s0.19 -0.64 0.19 -1 c0 -0.25334 -0.03666 -0.54668 -0.11 -0.88002 s-0.21 -0.64334 -0.41 -0.93 s-0.47334 -0.53 -0.82 -0.73 s-0.79332 -0.3 -1.33998 -0.3 z M3.51992 12.40012 l-2.48 0.000039 l0 6.54 l2.14 0 c0.44 0 0.88 -0.05334 1.32 -0.16 s0.84 -0.28666 1.2 -0.54 s0.65 -0.58668 0.87 -1.00002 s0.33 -0.92668 0.33 -1.54002 c0 -0.56 -0.08666 -1.05 -0.26 -1.47 s-0.41334 -0.76334 -0.72 -1.03 s-0.66666 -0.46666 -1.08 -0.6 s-0.85334 -0.2 -1.32 -0.2 z M12.74 20.18 c-1.22666 0 -2.17672 -0.33336 -2.85006 -1.00002 s-1.01 -1.65332 -1.01 -2.95998 l0 -11.22 l1.08 0 l0 11.16 c0 0.32 0.04334 0.65666 0.13 1.01 s0.23666 0.67334 0.45 0.96 s0.49668 0.52332 0.85002 0.70998 s0.79 0.28 1.31 0.28 c0.57334 0 1.04668 -0.08334 1.42002 -0.25 s0.67334 -0.39666 0.9 -0.69 s0.38666 -0.64 0.48 -1.04 s0.14 -0.82666 0.14 -1.28 l0 -10.86 l1.06 0 l0 11.22 c0 1.33334 -0.32334 2.32668 -0.97 2.98002 s-1.64332 0.98 -2.98998 0.98 z M18.56 20 l0 -15 l1.28 0 l0 15 l-1.28 0 z M21.78 20 l0 -15 l1.08 0 l0 13.92 l5.1 0 l0 1.08 l-6.18 0 z M36.1 16.96 c-0.09334 0.41334 -0.23 0.80334 -0.41 1.17 s-0.41666 0.69 -0.71 0.97 s-0.65 0.5 -1.07 0.66 s-0.91 0.24 -1.47 0.24 l-3.64 0 l0 -15 l3.5 0 c1.01334 0 1.86334 0.23666 2.55 0.71 s1.13 1.27 1.33 2.39 c0.04 0.21334 0.07334 0.54334 0.1 0.99 s0.04666 0.96 0.06 1.54 s0.02 1.19 0.02 1.83 s-0.01 1.25334 -0.03 1.84 s-0.05 1.11666 -0.09 1.59 s-0.08666 0.83 -0.14 1.07 z M32.12 6.02 l-2.31998 0.00002 l0 12.9 l2.6 0 c0.36 0 0.68 -0.06334 0.96 -0.19 s0.53 -0.29332 0.75 -0.49998 s0.40334 -0.43666 0.55 -0.69 s0.26666 -0.5 0.36 -0.74 c0.06666 -0.17334 0.12332 -0.48668 0.16998 -0.94002 s0.08 -0.97 0.1 -1.55 s0.03 -1.19666 0.03 -1.85 s-0.01 -1.26668 -0.03 -1.84002 s-0.05 -1.08 -0.09 -1.52 s-0.08666 -0.74666 -0.14 -0.92 c-0.08 -0.24 -0.18666 -0.49 -0.32 -0.75 s-0.31 -0.49334 -0.53 -0.7 s-0.5 -0.37666 -0.84 -0.51 s-0.75666 -0.2 -1.25 -0.2 z M52.18 20 l-0.98 0 l-2.74 -13.4 l-2.72 13.4 l-0.96 0 l-3.44 -15 l1.06 0 l2.74 13.08 l3.02 -13.08 l0.64 0 l3 13.08 l2.74 -13.08 l1.08 0 z M56.38 20 l0 -15 l7.36 0 l0 1.16 l-6.32 0 l0 5.7 l6.26 0 l0 0.92 l-6.26 0 l0 6.06 l6.46 0 l0 1.16 l-7.5 0 z M72.8 20 l-1.1 -4.42 l-4.88 0 l-1.1 4.42 l-1 0 l4.14 -15 l0.86 0 l4.12 15 l-1.04 0 z M69.32 5.94 l-2.26 8.68 l4.38 0 z M74.8 20 l0 -15 l1.08 0 l0 13.92 l5.1 0 l0 1.08 l-6.18 0 z M84.96 6.1 l0 13.9 l-1.16 0 l0 -13.9 l-3.26 0 l0 -1.1 l7.68 0 l0 1.1 l-3.26 0 z M95.7 20 l-0.02 -6.98 l-5.48 0 l0.02 6.98 l-1.16 0 l0 -15 l1.16 0 l-0.02 6.96 l5.48 0 l0.02 -6.96 l1.18 0 l0 15 l-1.18 0 z M103.06 6.14 l0 6.06 l6.02 0 l0 1.06 l-6.02 0 l0 6.74 l-1.16 0 l0 -15 l7.28 0 l0 1.14 l-6.12 0 z M113.7 20.18 c-2.52 0 -3.78002 -1.32 -3.78002 -3.96 l0 -7.4 c0 -1.33334 0.31666 -2.32668 0.95 -2.98002 s1.65668 -0.98 3.07002 -0.98 c1.29334 0 2.25 0.33 2.87 0.99 s0.93 1.63666 0.93 2.93 l0 7.44 c0 0.66666 -0.07 1.24666 -0.21 1.74 s-0.37 0.90668 -0.69 1.24002 s-0.73666 0.58 -1.25 0.74 s-1.14334 0.24 -1.89 0.24 z M116.67998 8.76 c0 -0.33334 -0.046641 -0.673378 -0.13998 -1.02004 s-0.24668 -0.66332 -0.46002 -0.94998 s-0.49668 -0.52 -0.85002 -0.7 s-0.79 -0.27 -1.31 -0.27 c-0.57334 0 -1.05 0.08 -1.43 0.24 s-0.68 0.38334 -0.9 0.67 s-0.37666 0.62332 -0.47 1.00998 s-0.14 0.80666 -0.14 1.26 l0 7.1 c0 0.34666 0.04 0.7 0.12 1.06 s0.22334 0.69 0.43 0.99 s0.48666 0.54666 0.84 0.74 s0.79668 0.29 1.33002 0.29 c0.57334 0 1.05 -0.07666 1.43 -0.23 s0.68334 -0.36334 0.91 -0.63 s0.39 -0.58332 0.49 -0.94998 s0.15 -0.76332 0.15 -1.18998 l0 -7.42 z M126.82 20 l-3.3 -6.22 l-3.06 0 l0 6.22 l-0.98 0 l0 -15 l3.4 0 c0.78666 0 1.46 0.11666 2.02 0.35 s1.02 0.55 1.38 0.95 s0.62666 0.86334 0.8 1.39 s0.26 1.07666 0.26 1.65 c0 0.97334 -0.25 1.85 -0.75 2.63 s-1.15666 1.35 -1.97 1.71 l3.52 6.32 l-1.32 0 z M122.74 5.92 l-2.28 -0.00002 l0 6.84 l2.42 0 c0.68 0 1.24 -0.10334 1.68 -0.31 s0.78334 -0.47332 1.03 -0.79998 s0.42 -0.7 0.52 -1.12 s0.15 -0.85 0.15 -1.29 c0 -0.46666 -0.08 -0.9 -0.24 -1.3 s-0.39 -0.75 -0.69 -1.05 s-0.66666 -0.53666 -1.1 -0.71 s-0.93 -0.26 -1.49 -0.26 z M136.4 20.18 c-1.26666 0 -2.21332 -0.33334 -2.83998 -1 s-0.94 -1.65332 -0.94 -2.95998 l0 -7.4 c0 -1.33334 0.31334 -2.32668 0.94 -2.98002 s1.64 -0.98 3.04 -0.98 c1.32 0 2.28666 0.33 2.9 0.99 s0.92 1.63666 0.92 2.93 l0 1.08 l-1.08 0 l0 -1.28 c0 -0.33334 -0.04 -0.67 -0.12 -1.01 s-0.22334 -0.65 -0.43 -0.93 s-0.49 -0.50666 -0.85 -0.68 s-0.82 -0.26 -1.38 -0.26 s-1.02334 0.07666 -1.39 0.23 s-0.66 0.37 -0.88 0.65 s-0.37666 0.61 -0.47 0.99 s-0.14 0.79666 -0.14 1.25 l0 7.48 c0 0.46666 0.04666 0.88332 0.14 1.24998 s0.25 0.67666 0.47 0.93 s0.50666 0.44668 0.86 0.58002 s0.78334 0.2 1.29 0.2 c0.56 0 1.02666 -0.07 1.4 -0.21 s0.67334 -0.33666 0.9 -0.59 s0.39 -0.56 0.49 -0.92 s0.15 -0.75334 0.15 -1.18 l0 -2.94 l-3.14 -0.02 l0 -0.98 l4.18 0.02 l0 3.78 c0 1.32 -0.30666 2.31 -0.92 2.97 s-1.64668 0.99 -3.10002 0.99 z M149.02 20 l-3.3 -6.22 l-3.06 0 l0 6.22 l-0.98 0 l0 -15 l3.4 0 c0.78666 0 1.46 0.11666 2.02 0.35 s1.02 0.55 1.38 0.95 s0.62666 0.86334 0.8 1.39 s0.26 1.07666 0.26 1.65 c0 0.97334 -0.25 1.85 -0.75 2.63 s-1.15666 1.35 -1.97 1.71 l3.52 6.32 l-1.32 0 z M144.94 5.92 l-2.28 -0.00002 l0 6.84 l2.42 0 c0.68 0 1.24 -0.10334 1.68 -0.31 s0.78334 -0.47332 1.03 -0.79998 s0.42 -0.7 0.52 -1.12 s0.15 -0.85 0.15 -1.29 c0 -0.46666 -0.08 -0.9 -0.24 -1.3 s-0.39 -0.75 -0.69 -1.05 s-0.66666 -0.53666 -1.1 -0.71 s-0.93 -0.26 -1.49 -0.26 z M151.56 20 l0 -15 l7.36 0 l0 1.16 l-6.32 0 l0 5.7 l6.26 0 l0 0.92 l-6.26 0 l0 6.06 l6.46 0 l0 1.16 l-7.5 0 z M167.98 20 l-1.1 -4.42 l-4.88 0 l-1.1 4.42 l-1 0 l4.14 -15 l0.86 0 l4.12 15 l-1.04 0 z M164.5 5.94 l-2.26 8.68 l4.38 0 z M172.44 6.1 l0 13.9 l-1.16 0 l0 -13.9 l-3.26 0 l0 -1.1 l7.68 0 l0 1.1 l-3.26 0 z M176.8 20 l0 -15 l7.36 0 l0 1.16 l-6.32 0 l0 5.7 l6.26 0 l0 0.92 l-6.26 0 l0 6.06 l6.46 0 l0 1.16 l-7.5 0 z M192.74 20 l-3.3 -6.22 l-3.06 0 l0 6.22 l-0.98 0 l0 -15 l3.4 0 c0.78666 0 1.46 0.11666 2.02 0.35 s1.02 0.55 1.38 0.95 s0.62666 0.86334 0.8 1.39 s0.26 1.07666 0.26 1.65 c0 0.97334 -0.25 1.85 -0.75 2.63 s-1.15666 1.35 -1.97 1.71 l3.52 6.32 l-1.32 0 z M188.66 5.92 l-2.28 -0.00002 l0 6.84 l2.42 0 c0.68 0 1.24 -0.10334 1.68 -0.31 s0.78334 -0.47332 1.03 -0.79998 s0.42 -0.7 0.52 -1.12 s0.15 -0.85 0.15 -1.29 c0 -0.46666 -0.08 -0.9 -0.24 -1.3 s-0.39 -0.75 -0.69 -1.05 s-0.66666 -0.53666 -1.1 -0.71 s-0.93 -0.26 -1.49 -0.26 z M202.32 20.18 c-1.26666 0 -2.21332 -0.33334 -2.83998 -1 s-0.94 -1.65332 -0.94 -2.95998 l0 -7.4 c0 -1.33334 0.31334 -2.32668 0.94 -2.98002 s1.64 -0.98 3.04 -0.98 c1.32 0 2.28666 0.33 2.9 0.99 s0.92 1.63666 0.92 2.93 l0 1.08 l-1.08 0 l0 -1.28 c0 -0.33334 -0.04 -0.67 -0.12 -1.01 s-0.22334 -0.65 -0.43 -0.93 s-0.49 -0.50666 -0.85 -0.68 s-0.82 -0.26 -1.38 -0.26 s-1.02334 0.07666 -1.39 0.23 s-0.66 0.37 -0.88 0.65 s-0.37666 0.61 -0.47 0.99 s-0.14 0.79666 -0.14 1.25 l0 7.48 c0 0.46666 0.04666 0.88332 0.14 1.24998 s0.25 0.67666 0.47 0.93 s0.50666 0.44668 0.86 0.58002 s0.78334 0.2 1.29 0.2 c0.56 0 1.02666 -0.07 1.4 -0.21 s0.67334 -0.33666 0.9 -0.59 s0.39 -0.56 0.49 -0.92 s0.15 -0.75334 0.15 -1.18 l0 -2.94 l-3.14 -0.02 l0 -0.98 l4.18 0.02 l0 3.78 c0 1.32 -0.30666 2.31 -0.92 2.97 s-1.64668 0.99 -3.10002 0.99 z M211.74 20.18 c-2.52 0 -3.78002 -1.32 -3.78002 -3.96 l0 -7.4 c0 -1.33334 0.31666 -2.32668 0.95 -2.98002 s1.65668 -0.98 3.07002 -0.98 c1.29334 0 2.25 0.33 2.87 0.99 s0.93 1.63666 0.93 2.93 l0 7.44 c0 0.66666 -0.07 1.24666 -0.21 1.74 s-0.37 0.90668 -0.69 1.24002 s-0.73666 0.58 -1.25 0.74 s-1.14334 0.24 -1.89 0.24 z M214.71998 8.76 c0 -0.33334 -0.046641 -0.673378 -0.13998 -1.02004 s-0.24668 -0.66332 -0.46002 -0.94998 s-0.49668 -0.52 -0.85002 -0.7 s-0.79 -0.27 -1.31 -0.27 c-0.57334 0 -1.05 0.08 -1.43 0.24 s-0.68 0.38334 -0.9 0.67 s-0.37666 0.62332 -0.47 1.00998 s-0.14 0.80666 -0.14 1.26 l0 7.1 c0 0.34666 0.04 0.7 0.12 1.06 s0.22334 0.69 0.43 0.99 s0.48666 0.54666 0.84 0.74 s0.79668 0.29 1.33002 0.29 c0.57334 0 1.05 -0.07666 1.43 -0.23 s0.68334 -0.36334 0.91 -0.63 s0.39 -0.58332 0.49 -0.94998 s0.15 -0.76332 0.15 -1.18998 l0 -7.42 z M220.92 20.18 c-2.52 0 -3.78002 -1.32 -3.78002 -3.96 l0 -7.4 c0 -1.33334 0.31666 -2.32668 0.95 -2.98002 s1.65668 -0.98 3.07002 -0.98 c1.29334 0 2.25 0.33 2.87 0.99 s0.93 1.63666 0.93 2.93 l0 7.44 c0 0.66666 -0.07 1.24666 -0.21 1.74 s-0.37 0.90668 -0.69 1.24002 s-0.73666 0.58 -1.25 0.74 s-1.14334 0.24 -1.89 0.24 z M223.89998 8.76 c0 -0.33334 -0.046641 -0.673378 -0.13998 -1.02004 s-0.24668 -0.66332 -0.46002 -0.94998 s-0.49668 -0.52 -0.85002 -0.7 s-0.79 -0.27 -1.31 -0.27 c-0.57334 0 -1.05 0.08 -1.43 0.24 s-0.68 0.38334 -0.9 0.67 s-0.37666 0.62332 -0.47 1.00998 s-0.14 0.80666 -0.14 1.26 l0 7.1 c0 0.34666 0.04 0.7 0.12 1.06 s0.22334 0.69 0.43 0.99 s0.48666 0.54666 0.84 0.74 s0.79668 0.29 1.33002 0.29 c0.57334 0 1.05 -0.07666 1.43 -0.23 s0.68334 -0.36334 0.91 -0.63 s0.39 -0.58332 0.49 -0.94998 s0.15 -0.76332 0.15 -1.18998 l0 -7.42 z M233.74 16.96 c-0.09334 0.41334 -0.23 0.80334 -0.41 1.17 s-0.41666 0.69 -0.71 0.97 s-0.65 0.5 -1.07 0.66 s-0.91 0.24 -1.47 0.24 l-3.64 0 l0 -15 l3.5 0 c1.01334 0 1.86334 0.23666 2.55 0.71 s1.13 1.27 1.33 2.39 c0.04 0.21334 0.07334 0.54334 0.1 0.99 s0.04666 0.96 0.06 1.54 s0.02 1.19 0.02 1.83 s-0.01 1.25334 -0.03 1.84 s-0.05 1.11666 -0.09 1.59 s-0.08666 0.83 -0.14 1.07 z M229.76 6.02 l-2.31998 0.00002 l0 12.9 l2.6 0 c0.36 0 0.68 -0.06334 0.96 -0.19 s0.53 -0.29332 0.75 -0.49998 s0.40334 -0.43666 0.55 -0.69 s0.26666 -0.5 0.36 -0.74 c0.06666 -0.17334 0.12332 -0.48668 0.16998 -0.94002 s0.08 -0.97 0.1 -1.55 s0.03 -1.19666 0.03 -1.85 s-0.01 -1.26668 -0.03 -1.84002 s-0.05 -1.08 -0.09 -1.52 s-0.08666 -0.74666 -0.14 -0.92 c-0.08 -0.24 -0.18666 -0.49 -0.32 -0.75 s-0.31 -0.49334 -0.53 -0.7 s-0.5 -0.37666 -0.84 -0.51 s-0.75666 -0.2 -1.25 -0.2 z"></path></g>
			</g>
		</svg>
	