<svg width="1200" height="1200" xmlns="http://www.w3.org/2000/svg" xmlns:xlink="http://www.w3.org/1999/xlink" version="1.1"><g transform="scale(6.282721620786746) translate(9.550001356336805, 56.950017366144394)">            <linearGradient id="SvgjsLinearGradient16886"><stop id="SvgjsStop16887" stop-color="#006838" offset="0"/><stop id="SvgjsStop16888" stop-color="#96cf24" offset="1"/></linearGradient><linearGradient id="SvgjsLinearGradient16889"><stop id="SvgjsStop16890" stop-color="#006838" offset="0"/><stop id="SvgjsStop16891" stop-color="#96cf24" offset="1"/></linearGradient><linearGradient id="SvgjsLinearGradient16892"><stop id="SvgjsStop16893" stop-color="#ef4136" offset="0"/><stop id="SvgjsStop16894" stop-color="#fbb040" offset="1"/></linearGradient>            <g fill="url(#SvgjsLinearGradient16886)"><linearGradient id="SvgjsLinearGradient16886"><stop id="SvgjsStop16887" stop-color="#006838" offset="0"/><stop id="SvgjsStop16888" stop-color="#96cf24" offset="1"/></linearGradient><linearGradient id="SvgjsLinearGradient16889"><stop id="SvgjsStop16890" stop-color="#006838" offset="0"/><stop id="SvgjsStop16891" stop-color="#96cf24" offset="1"/></linearGradient><linearGradient id="SvgjsLinearGradient16892"><stop id="SvgjsStop16893" stop-color="#ef4136" offset="0"/><stop id="SvgjsStop16894" stop-color="#fbb040" offset="1"/></linearGradient><path xmlns="http://www.w3.org/2000/svg" d="M170.8,14.4c-0.2,0-4.5-1.2-10.4-1.2c-7.2,0-13.3,1.6-18,4.8c-10.9,7.3-13.5,22.1-13.9,24.5c-2.5,2.5-4.8,5.2-7,8.1  c-1.2-2.5-2.2-5-3.1-7.6c0.9-1.1,2.8-3.5,4.5-6.9c2.7-5.3,3.8-10.5,3.3-15.3c-1.4-11.9-12.9-20-13.4-20.3l-1-0.7L111,0.9  c-0.1,0.1-2.6,3-4.9,7.4c-2.8,5.4-3.9,10.6-3.3,15.5c1.3,10.9,11.3,18.6,13,19.9c1,3.2,2.4,6.3,4,9.5c-4.6,6.6-8.1,13.8-10.4,21.5  H54.5c0.4-1.7,0.8-3.2,1.2-4.6c0.1-0.4,0.2-0.8,0.4-1.1c1-3.2,2.3-6.3,3.8-9.2c1.4-0.1,4.6-0.5,8.2-1.7c5.8-1.8,10.3-4.7,13.4-8.6  c7.6-9.5,5.2-23.7,5.1-24.3L86.4,24L85.2,24c-0.4,0-4.2,0.3-8.9,1.8c-5.9,1.9-10.5,4.8-13.6,8.7c-7,8.8-5.4,21.6-5.1,23.7  c-1.5,2.9-2.8,5.9-3.8,9.1c0,0-0.1,0.3-0.5,1.5c-0.6,1.9-1.1,3.8-1.6,5.9H11.5c0.5-1.7,1.2-3.2,1.9-4.7c1-0.1,2.9-0.4,5.2-1.2  c3.8-1.3,6.8-3.3,8.8-5.9c4.9-6.4,3.1-15.8,3.1-16.2l-0.2-1.1L29,45.6c-0.5,0-2.9,0.3-5.8,1.3c-3.9,1.3-6.9,3.3-8.9,6  c-4.4,5.7-3.4,13.7-3.1,15.7c-0.9,1.9-1.7,3.9-2.3,5.9c0,0,0,0.1,0,0.1H0v2.7h148.1v-2.7H112c2.2-7.1,5.5-13.7,9.7-19.9  c0.3-0.4,0.5-0.8,0.8-1.1c2.3-3.2,4.9-6.3,7.6-9.1c1.6,0.4,5.2,1,9.8,1c7.1,0,13-1.6,17.8-4.8c11.7-7.9,14-24.3,14.1-25l0.1-1.1  L170.8,14.4z M139.9,43.1c-3.2,0-6.1-0.4-7.8-0.7c2.7-3,8.9-9.1,17.4-14c3.9-2.3,8.2-4.2,12.8-5.8l0.5-0.2l-0.8-2.4l-0.5,0.2  c-4.7,1.6-9.2,3.6-13.2,6c-7.3,4.2-13,9.3-16.3,12.7c1.4-5,4.7-13.8,11.9-18.6c4.3-2.9,9.9-4.4,16.6-4.4c3.8,0,7,0.5,8.6,0.8  c-0.7,3.5-3.7,15.9-12.8,22.1C151.9,41.6,146.4,43.1,139.9,43.1z M114.3,10.6l0.1-0.7l-2.6-0.4l-0.1,0.7c-0.6,4.2-0.8,8.3-0.6,12.2  c0.3,6.6,1.8,12.5,2.9,16.2c-6.8-6.5-8.3-12.8-8.6-15.2c-0.5-4.3,0.5-9,3.1-13.9c1.4-2.7,2.9-4.8,3.8-5.9  c9.6,7.6,11.1,16.1,11.3,17.7c0.5,4.3-0.5,8.9-3,13.8c-1.1,2.2-2.4,4-3.2,5.2c-1.2-3.2-3.2-10-3.6-17.9  C113.5,18.6,113.7,14.6,114.3,10.6z M71.6,41.4c2.6-2.8,5.6-5.5,8.9-8l0.6-0.4l-1.6-2.1l-0.6,0.4c-3.5,2.6-6.6,5.4-9.3,8.3  c-4.6,5-7.8,10.3-9.7,13.8c-0.2-9.7,3.3-15.2,4.9-17.2c2.8-3.5,6.9-6.1,12.3-7.8c3-0.9,5.6-1.3,7-1.5c1.4,12.5-3.7,19.6-4.7,20.9  c-2.7,3.4-6.8,6-12.1,7.7c-2.4,0.8-4.6,1.2-6.1,1.4C62.7,53.7,66.1,47.3,71.6,41.4z M20.7,57.8c1.6-1.9,3.5-3.6,5.6-5.3L27,52  l-1.6-2l-0.7,0.5c-2.2,1.7-4.2,3.6-6,5.6c-2.4,2.7-4.1,5.5-5.4,7.7c0.1-2.8,0.7-6.5,2.8-9.4c1.7-2.2,4.3-4,7.7-5.1  c1.6-0.6,3.1-0.8,4-1c0.3,2.5,0.5,8.7-2.7,12.9c-1.7,2.2-4.2,3.9-7.6,5c-1.1,0.4-2.2,0.7-3.1,0.8C15.7,64.9,17.6,61.3,20.7,57.8z"/></g>        </g></svg>